<?xml version="1.0" encoding="utf-8"?>
<!-- Generator: Adobe Illustrator 26.0.1, SVG Export Plug-In . SVG Version: 6.00 Build 0)  -->
<svg version="1.1" id="Layer_1" xmlns="http://www.w3.org/2000/svg" xmlns:xlink="http://www.w3.org/1999/xlink" x="0px" y="0px"
	 viewBox="0 0 1080 1080" style="enable-background:new 0 0 1080 1080;" xml:space="preserve">
<style type="text/css">
	.st0{fill:#FFFFFF;}
</style>
<g>
	<g>
		<path class="st0" d="M421.8,1020.7c-10.5-5.8-13.5-14.9-13.3-26.6c0.5-31.6,0.2-63.1,0.2-91.5c-10.4-9.3-20.5-15.8-27.2-24.7
			c-18.2-24.5-12-59.8,13.3-77.1c6.9-4.7,6.7-8.5,4.2-15.1c-20.9-54.9-41.4-109.9-62.5-164.7c-3.4-9-2.9-16.5,1.7-24.9
			c61-111.2,121.8-222.6,182.6-334c4.4-8.1,9.6-14.9,19.8-14.7c9.7,0.2,14.6,6.9,18.8,14.7C620.1,373.4,681,484.8,742,596
			c4.6,8.4,5.1,15.9,1.7,24.9c-20.9,54.5-41.2,109.3-62.1,163.8c-2.9,7.5-2.7,11.3,4.6,16.6c33.6,24.2,29.3,75.5-7.6,94.2
			c-5.7,2.9-7.2,6.2-7.2,12.2c0.3,28.8-0.2,57.6,0.3,86.4c0.2,11.7-2.8,20.8-13.3,26.6C579.5,1020.7,500.6,1020.7,421.8,1020.7z
			 M560.7,342.8c-0.6,0.2-1.2,0.3-1.8,0.5c0,2.7,0,5.3,0,8c0,65.4,0.1,130.8-0.1,196.2c0,6.4,1.9,9.6,7.7,12.7
			c23.1,12,34.3,37.7,28.1,62.6c-6.3,25.3-29,43.1-54.7,43c-25.5-0.2-47.8-17.7-54.1-42.6c-6.5-25.2,4.9-51.3,28.5-63.3
			c5.7-2.9,7.3-6,7.3-12c-0.2-65.7-0.1-131.4-0.2-197.1c0-2.6-0.3-5.1-0.6-10.1c-46.1,84.4-91,166.6-136.6,250.1c4.6,0,7.6,0,10.6,0
			c10.9,0,21.9-0.4,32.8,0.2c10.9,0.5,18.6,8.8,18.6,18.7c0,9.6-7.4,17.3-17.8,18.5c-3.4,0.4-6.9,0.2-10.3,0.2
			c-12.4,0-24.7,0-37.7,0c0.5,2.4,0.6,3.6,1.1,4.7c18.9,50.3,38.1,100.5,56.7,150.8c2.3,6.2,6,5.9,10.8,5.9
			c60.7,0,121.4-0.1,182.1,0.1c6.6,0,9.8-1.8,12.1-8.3c17.8-48,36-95.9,54-143.8c1.1-2.8,1.9-5.7,3.2-9.5c-5.8,0-10.5,0-15.2,0
			c-10.9,0-21.9,0.4-32.8-0.2c-10.8-0.6-18.5-9.1-18.2-19c0.3-9.6,7.7-17.2,18.2-18.2c4.3-0.4,8.8-0.2,13.1-0.2c9.8,0,19.6,0,30.7,0
			C650.3,507,605.5,424.9,560.7,342.8z M446.9,902.8c0,27.1,0,53.5,0,79.6c62.7,0,124.7,0,186.5,0c0-26.9,0-53,0-79.6
			C571.1,902.8,509.3,902.8,446.9,902.8z M540.1,827.3c-35.7,0-71.3,0-107,0c-15.2,0-24.3,7.1-24.3,18.8c0,11.7,9.1,18.7,24.3,18.8
			c0.6,0,1.3,0,1.9,0c70.1,0,140.1,0,210.2-0.1c4.3,0,8.9-0.1,13-1.3c8.4-2.5,13.1-8.8,13-17.5c0-8.6-4.5-15-13-17.4
			c-3.8-1.1-8-1.3-12-1.3C610.7,827.3,575.4,827.3,540.1,827.3z M540.8,590.9c-9.7-0.5-18.9,8-19.3,17.9c-0.5,9.7,8,18.9,17.9,19.3
			c9.7,0.5,18.9-8,19.3-17.9C559.1,600.6,550.6,591.4,540.8,590.9z"/>
		<path class="st0" d="M1020.6,125.1c-5.2,16.1-12.6,30.4-28.2,39.2c-28.8,16.2-63,6-78.3-23.7c-2.1-4.1-3.9-6.2-8.9-6.2
			c-59.4,0.2-118.9,0.1-179,1.6c2.8,1.4,5.5,2.8,8.4,4.1c32.1,14.4,62.1,32.2,89.5,54.3c2.7,2.1,5.4,4.4,7.5,7
			c5.6,6.8,5.5,16.3,0.1,23.3c-4.9,6.3-14.4,8.6-22.1,4.9c-3.1-1.5-5.9-3.6-8.6-5.7c-59.8-47.5-128.6-73.4-204.7-85.4
			c0,4.8,0.2,9,0,13.2c-0.6,12.5-7.6,20.1-19.9,20.3c-24.1,0.4-48.2,0.3-72.3,0c-12.9-0.2-19.9-7.7-20.4-20.8c-0.1-4,0-8,0-12.6
			C408.3,150.3,339.9,176.1,280,223c-5,3.9-11.3,7.4-17.3,8.1c-7.9,0.9-14.4-3.7-17.2-11.7c-2.9-8.3-0.8-15.6,5.9-21.1
			c9-7.3,17.9-14.9,27.7-20.8c24.3-14.7,49-28.5,73.1-42.4c-0.7-0.1-2.9-0.4-5.1-0.4c-56.6,0-113.2,0.1-169.9-0.2
			c-6.3,0-9,2-11.9,7.5c-12.1,23.5-38.2,34.8-63.4,28.2c-24.8-6.5-42.3-28.9-42.3-54.3c0-25.8,17.9-48.4,43.2-54.6
			c24.9-6.1,50.4,5.2,62.6,28.3c2.5,4.9,4.7,7.6,10.9,7.6C276.3,96.9,376.4,97,476.5,97c2.1,0,4.2,0,7.2,0c0-5.8-0.1-10.7,0-15.6
			c0.3-14.3,7.3-21.7,21.3-21.8c23.5-0.2,46.9-0.3,70.4,0c13.5,0.2,20.5,7.6,20.9,21.2c0.1,5,0,10,0,15.8c3.4,0.2,6.4,0.4,9.4,0.4
			c99.2,0,198.3,0,297.5,0.1c5.1,0,8.2-0.8,10.8-6.1c10.5-21.3,32-33.2,54.3-31.2c23.9,2.2,42.4,17.2,49.8,40.7c0.6,2,1.5,4,2.3,6
			C1020.6,112.6,1020.6,118.9,1020.6,125.1z M558.3,134.1c0-12.4,0-24.4,0-36.5c-12.5,0-24.5,0-36.3,0c0,12.6,0,24.6,0,36.5
			C534.5,134.1,546.2,134.1,558.3,134.1z M134.5,116.5c0.5-9.7-8-18.9-17.9-19.3c-9.7-0.5-18.9,8-19.3,17.9
			c-0.5,9.7,8,18.9,17.9,19.3C124.8,134.8,134,126.3,134.5,116.5z M982.9,116c0.1-9.8-8.6-18.7-18.4-18.8
			c-9.8-0.1-18.7,8.6-18.8,18.4c-0.1,9.8,8.6,18.7,18.4,18.8C973.8,134.5,982.8,125.8,982.9,116z"/>
		<path class="st0" d="M1020.6,572c-5.8,10.5-14.9,13.7-26.6,13.3c-20.6-0.6-41.3-0.1-61.9-0.2c-17.3-0.1-24-6.7-24.1-23.7
			c-0.1-21.3,0-42.5,0-63.8c0-18.6,6.3-24.9,24.7-25.1c2.8,0,5.5-0.2,8.5-0.4c-6.2-42.3-18.4-82.1-37.6-119.7
			c-2.1-4.2-4.3-8.3-6.3-12.5c-5.8-12.4-3.1-23.5,7-28.3c9.9-4.8,20.1-0.9,26.2,10.9c6.7,13,13.2,26.2,19,39.7
			c13.9,32.3,23.3,65.9,28.3,100.7c0.4,3,1.2,6,1.9,9.4c14.8,1.3,31.8-4.3,40.9,13.4C1020.6,514.4,1020.6,543.2,1020.6,572z
			 M946.3,510.2c0,12.2,0,24.4,0,36.7c12.3,0,24.2,0,36,0c0-12.6,0-24.6,0-36.7C970.1,510.2,958.6,510.2,946.3,510.2z"/>
		<path class="st0" d="M138.4,472.5c5.2,0,9.6-0.2,13.9,0c12,0.7,19.6,7.6,19.8,19.4c0.4,24.7,0.4,49.4,0,74.1
			c-0.2,11.4-7.7,18.7-19.2,18.9c-24.7,0.4-49.4,0.4-74.1,0c-11.4-0.2-18.8-7.7-18.9-19.2c-0.4-24.7-0.4-49.4,0-74.1
			c0.2-11.4,7.7-18.4,19.1-19c7.1-0.4,14.3-0.1,19.2-0.1c8.6-31.4,15.7-61.8,25.5-91.3c6.6-20,16.7-39,25.8-58.1
			c6-12.5,16.5-16.6,26.6-11.6c10,4.9,13.1,16.1,6.7,28.3c-15.2,29.2-27.9,59.3-35.6,91.4C143.9,444.6,141.4,458.1,138.4,472.5z
			 M97.8,510.4c0,13,0,25,0,36.7c12.5,0,24.2,0,36.2,0c0-12.5,0-24.4,0-36.7C121.7,510.4,110,510.4,97.8,510.4z"/>
		<path class="st0" d="M228.3,265.9c0,9.8-8.8,18.6-18.6,18.7c-9.8,0-18.6-8.8-18.7-18.6c0-9.8,8.8-18.6,18.6-18.7
			C219.5,247.3,228.3,256.1,228.3,265.9z"/>
		<path class="st0" d="M870.7,284.6c-9.8,0.2-18.7-8.4-18.9-18.3c-0.2-9.8,8.4-18.7,18.3-18.9c9.8-0.2,18.7,8.4,18.9,18.3
			C889.2,275.5,880.6,284.4,870.7,284.6z"/>
	</g>
	<g>
		<path class="st0" d="M59.4,632.3h63.2c86.5,0,135.9,62.7,135.9,187.5v13.3c0,124.8-49.4,187.5-135.9,187.5H59.4V632.3z
			 M129.9,958.5c32.2,0,59.9-28.3,59.9-125.4v-13.3c0-97.1-27.7-125.4-59.9-125.4h-2.8v264.1H129.9z"/>
	</g>
	<g>
		<path class="st0" d="M826.4,632.3h67.7v160.9h58.8V632.3h67.7v388.4h-67.7V857.6h-58.8v163.1h-67.7V632.3z"/>
	</g>
</g>
</svg>
