<?xml version="1.0" encoding="utf-8"?>
<!-- Generator: Adobe Illustrator 25.2.0, SVG Export Plug-In . SVG Version: 6.00 Build 0)  -->
<svg version="1.1" id="Layer_1" xmlns="http://www.w3.org/2000/svg" xmlns:xlink="http://www.w3.org/1999/xlink" x="0px" y="0px"
	 viewBox="0 0 1080 1080" style="enable-background:new 0 0 1080 1080;" xml:space="preserve">
<style type="text/css">
	.st0{fill:url(#SVGID_1_);}
	.st1{fill:url(#SVGID_2_);}
	.st2{fill:url(#SVGID_3_);}
	.st3{fill:url(#SVGID_4_);}
	.st4{fill:url(#SVGID_5_);}
	.st5{fill:url(#SVGID_6_);}
	.st6{fill:url(#SVGID_7_);}
	.st7{fill:url(#SVGID_8_);}
	.st8{fill:url(#SVGID_9_);}
	.st9{fill:url(#SVGID_10_);}
	.st10{fill:url(#SVGID_11_);}
</style>
<g>
	<linearGradient id="SVGID_1_" gradientUnits="userSpaceOnUse" x1="864.9894" y1="567.0623" x2="1051.2301" y2="567.0623">
		<stop  offset="0" style="stop-color:#99C224"/>
		<stop  offset="1" style="stop-color:#215C29"/>
	</linearGradient>
	<polygon class="st0" points="1051.23,464.34 1051.23,501.99 981.94,501.99 981.94,669.79 934.28,669.79 934.28,501.99 
		864.99,501.99 864.99,464.34 	"/>
	<g>
		<linearGradient id="SVGID_2_" gradientUnits="userSpaceOnUse" x1="981.2849" y1="500.2554" x2="1067.6512" y2="500.2554">
			<stop  offset="0" style="stop-color:#99C224"/>
			<stop  offset="1" style="stop-color:#215C29"/>
		</linearGradient>
		<path class="st1" d="M993.87,534.48c0.63-0.21,1.25-0.47,1.9-0.63c7.09-1.76,12.72-5.71,16.7-11.75
			c2.57-3.91,4.96-8.01,6.85-12.27c5.02-11.29,10.76-22.06,19.81-30.74c0.15-0.15,0.09-0.52,0.19-1.24
			c-2.83,0.87-5.09,2.41-6.81,4.37c-4.28,4.88-8.53,9.83-12.33,15.09c-3.46,4.77-6.16,10.09-9.47,14.97
			c-4.88,7.21-10.61,13.63-18.12,18.27c-4.12,2.54-6.67,3.47-11.23,3.94c0-1.51-0.19-3.02,0.03-4.47
			c2.71-17.48,9.04-33.29,21.59-46.15c12.41-12.72,27.62-18.77,45.33-18.64c6.37,0.05,12.71,0.46,19.34,2.64
			c-0.94,0.61-1.54,1.14-2.23,1.41c-4.56,1.82-7.72,5.28-10.48,9.13c-5.1,7.1-8.26,15.13-10.81,23.42
			c-2.21,7.19-5.38,13.8-10.62,19.33c-7.66,8.09-17.36,11.9-28.1,13.55C1001.61,535.27,997.8,535.79,993.87,534.48z"/>
		<linearGradient id="SVGID_3_" gradientUnits="userSpaceOnUse" x1="843.7244" y1="492.167" x2="931.0219" y2="492.167">
			<stop  offset="0" style="stop-color:#99C224"/>
			<stop  offset="1" style="stop-color:#215C29"/>
		</linearGradient>
		<path class="st2" d="M930.79,526.48c-4.24-0.13-7.74-1.83-11.1-3.88c-9.57-5.86-16.11-14.54-21.96-23.85
			c-3.14-5-6.04-10.19-9.59-14.88c-3.08-4.07-6.86-7.64-10.49-11.27c-1.21-1.22-2.91-1.95-5.1-3.35c0.34,1.28,0.31,1.75,0.54,1.97
			c7.92,7.56,13.32,16.81,17.84,26.65c1.52,3.3,2.97,6.64,4.66,9.85c4.92,9.33,11.52,16.7,23.13,18.45
			c-0.68,0.64-0.93,1.08-1.19,1.08c-10.34,0.27-20.23-1.59-29.32-6.65c-10.19-5.67-16.38-14.52-19.91-25.5
			c-1.62-5.04-3.58-9.97-5.56-14.88c-0.9-2.23-2.15-4.34-3.37-6.43c-4.11-7.01-7.71-10.29-15.67-14c3.31-0.73,5.79-1.44,8.32-1.81
			c20.59-3.02,39.18,1.17,54.78,15.6c12.22,11.31,19.06,25.61,22.58,41.65C930.2,518.86,931.58,522.47,930.79,526.48z"/>
		<linearGradient id="SVGID_4_" gradientUnits="userSpaceOnUse" x1="296.0862" y1="540.0156" x2="922.472" y2="540.0156">
			<stop  offset="0" style="stop-color:#99C224"/>
			<stop  offset="1" style="stop-color:#215C29"/>
		</linearGradient>
		<path class="st3" d="M922.35,423.87c0,0.88-0.13,1.77-0.25,2.9h-26.82c-0.51-15.59,0.32-31.18,0.06-47.02
			c-4.23-2.52-8.46-5.11-12.75-7.57c-58.06-33.45-116.13-66.9-174.13-100.35c-30.36-17.55-60.65-35.03-90.94-52.57
			c-2.52-1.51-4.48-1.51-7.07-0.06c-35.03,19.56-70.18,39.07-105.27,58.57c-28.65,15.9-57.24,31.75-85.9,47.65
			c-28.08,15.59-56.17,31.18-84.32,46.64c-3.16,1.7-4.04,3.72-4.04,7.13c-0.57,60.78-1.26,121.62-1.89,182.39
			c-0.13,10.67-0.19,21.4-0.32,32.06l-1.01,101.42l-0.06,0.32h-0.06v9.21c94.04,54.53,188.26,109.18,282.99,164.15
			c94.16-53.52,188.45-107.04,282.87-160.68c0.13-2.52,0.25-4.92,0.38-7.64h26.76c0,6.63,0.13,13.13-0.13,19.56
			c-0.06,1.07-1.64,2.4-2.78,3.09c-12.62,7.32-25.24,14.52-37.87,21.71c-52.26,29.85-104.51,59.64-156.77,89.49
			c-38.06,21.71-76.11,43.42-114.17,65.13c-0.38,0.25-0.76,0.38-1.58,0.82c-2.65-1.58-5.49-3.22-8.39-4.86
			c-82.55-48.22-165.16-96.44-247.78-144.65c-17.1-10.03-34.27-20.07-51.44-29.98c-2.46-1.39-3.28-2.97-3.28-5.68
			c0.06-26.57,0.06-53.08,0.06-79.65v-5.62c-0.13,0-0.25-0.06-0.38-0.06c0.19-0.38,0.32-0.76,0.44-1.2v-32.06
			c0.32-77.82,0.63-155.63,1.01-233.39c0-0.76,0.06-1.51,0-2.27c-0.25-2.27,0.63-3.53,2.65-4.67c10.48-5.81,20.83-11.87,31.18-17.8
			c43.3-24.74,86.59-49.48,129.88-74.22c27.9-15.97,55.79-31.87,83.69-47.78c20.39-11.68,40.83-23.23,61.16-35.09
			c3.47-1.96,5.93-2.02,9.47,0.06c59.7,35.03,119.53,69.99,179.3,104.89c41.34,24.17,82.74,48.34,124.08,72.52
			c2.02,1.14,3.53,2.15,3.53,5.05C922.28,383.86,922.35,403.87,922.35,423.87z"/>
		<linearGradient id="SVGID_5_" gradientUnits="userSpaceOnUse" x1="295.7929" y1="601.9758" x2="296.528" y2="601.9758">
			<stop  offset="0" style="stop-color:#99C224"/>
			<stop  offset="1" style="stop-color:#215C29"/>
		</linearGradient>
		<path class="st4" d="M296.53,601.34v1.33c-0.13-0.51-0.32-0.95-0.51-1.39C296.21,601.28,296.34,601.34,296.53,601.34z"/>
		<linearGradient id="SVGID_6_" gradientUnits="userSpaceOnUse" x1="327.5846" y1="695.2238" x2="327.7685" y2="695.2238">
			<stop  offset="0" style="stop-color:#99C224"/>
			<stop  offset="1" style="stop-color:#215C29"/>
		</linearGradient>
		<path class="st5" d="M327.77,695.38c-0.06,0-0.06,0-0.13,0l0.06-0.32C327.71,695.19,327.71,695.26,327.77,695.38z"/>
		<linearGradient id="SVGID_7_" gradientUnits="userSpaceOnUse" x1="327.5502" y1="699.9886" x2="327.6422" y2="699.9886">
			<stop  offset="0" style="stop-color:#99C224"/>
			<stop  offset="1" style="stop-color:#215C29"/>
		</linearGradient>
		<polygon class="st6" points="327.64,695.38 327.58,704.6 327.58,695.38 		"/>
		<linearGradient id="SVGID_8_" gradientUnits="userSpaceOnUse" x1="328.2219" y1="619.2712" x2="-20.6541" y2="355.1573">
			<stop  offset="0" style="stop-color:#99C224"/>
			<stop  offset="1" style="stop-color:#215C29"/>
		</linearGradient>
		<path class="st7" d="M296.53,600.02c-1.82-0.29-3.47-0.54-5.02-0.81c-32.5-5.64-64.24-13.95-94.57-27.13
			c-30.32-13.18-57.92-30.39-80.73-54.69c-18.25-19.44-31.68-41.67-39.24-67.29c-1.87-6.35-3.02-12.91-4.5-19.37
			c0.29-0.09,0.58-0.18,0.88-0.27c0.57,1.31,1.23,2.59,1.71,3.93c9.09,25.6,23.98,47.48,42.87,66.77
			c17.42,17.8,37.47,32.15,59.15,44.25c31.45,17.56,64.92,29.84,99.98,37.92c1.1,0.25,2.25,0.25,3.54,0.38
			c-0.24-0.6-0.27-0.98-0.46-1.1c-7.58-4.81-12.34-11.97-16.24-19.76c-7.96-15.94-11.52-33.14-13.82-50.61
			c-1.63-12.33-3.36-24.62-7.41-36.43c-5.22-15.22-13.61-28.32-26.15-38.63c-11.36-9.33-24.2-16.06-37.62-21.82
			c-25.37-10.87-51.76-18.92-77.66-28.32c-20.42-7.41-40.32-15.98-58.46-28.07c-6.28-4.18-12.1-9.13-17.73-14.17
			c-5.31-4.75-9.3-10.64-11.85-17.84c-2.27,7.58-0.04,44.9,8.77,77.95c13.26,49.73,37.34,93.6,73.15,130.61
			c55.01,56.86,122.31,87.58,201.43,93.08V600.02z"/>
		<linearGradient id="SVGID_9_" gradientUnits="userSpaceOnUse" x1="311.6167" y1="678.7159" x2="436.2628" y2="577.3424">
			<stop  offset="0" style="stop-color:#99C224"/>
			<stop  offset="1" style="stop-color:#215C29"/>
		</linearGradient>
		<path class="st8" d="M493.48,630.86c23.98-18.9,44.68-40.94,61.94-66.12c17.16-25.03,29.92-52.18,39.16-81.13
			c9.4-29.44,15.16-77.64,12.32-89.19c-0.32,0.38-0.72,0.65-0.86,1.03c-2.07,5.67-5.59,10.35-9.7,14.68
			c-9.3,9.8-20.49,17.02-32.19,23.51c-16.48,9.15-33.91,16.13-51.64,22.42c-20.55,7.29-41.14,14.47-61.59,22.05
			c-12.51,4.63-24.61,10.26-35.91,17.45c-11.79,7.5-21.9,16.65-29.23,28.72c-8.18,13.48-12.22,28.31-14.37,43.71
			c-2.04,14.56-3.86,29.15-8.17,43.27c-3.33,10.91-7.45,21.53-14.93,30.38c-2.78,3.29-6.23,6.02-9.53,9.15
			c0.94-0.13,1.82-0.19,2.66-0.38c29.56-6.58,57.99-16.41,85.2-29.73c25.88-12.67,49.87-28.15,70.74-48.18
			c21.19-20.34,37.68-43.81,47.64-71.62c0.36-1,0.91-1.92,1.38-2.88c0.51,0.96,0.56,1.73,0.38,2.44
			c-2.02,7.91-3.57,15.98-6.22,23.68c-10.9,31.71-30.64,57.21-56.36,78.28c-20.58,16.86-43.65,29.51-68.24,39.46
			c-25.66,10.38-52.25,17.53-79.41,22.68c-2.83,0.54-5.72,0.97-8.94,1.5v29.05c30.17-2.43,59.42-8.57,87.6-19.51
			C443.54,664.56,469.63,649.66,493.48,630.86z"/>
		<linearGradient id="SVGID_10_" gradientUnits="userSpaceOnUse" x1="217.711" y1="831.6927" x2="1003.0141" y2="831.6927">
			<stop  offset="0" style="stop-color:#99C224"/>
			<stop  offset="1" style="stop-color:#215C29"/>
		</linearGradient>
		<path class="st9" d="M611.39,993.6c-6.91-4.07-13.78-8.22-20.75-12.2c-36.69-21-73.4-41.97-110.12-62.91
			c-41.85-23.87-83.74-47.69-125.59-71.57c-40.67-23.2-81.3-46.45-121.96-69.68c-4.21-2.41-8.41-4.84-12.67-7.15
			c-1.62-0.88-2.57-1.98-2.57-3.9c0.01-8.49-0.04-16.98-0.03-25.47c0-0.41,0.29-70.25,0.55-70.93c10.82,0,21.67,0,32.75,0
			c1.41,3.91,0.11,77.48,0.88,81.87c118.35,67.18,236.92,134.48,355.63,201.86c5.91-3.39,11.69-6.68,17.44-10.02
			c50.06-29.06,100.11-58.14,150.18-87.18c44.31-25.69,88.64-51.34,132.96-77c16.91-9.8,33.78-19.67,50.76-29.35
			c3.33-1.9,4.93-3.85,4.77-8.08c-0.48-12.11-0.29-24.25-0.36-36.38c-0.01-1.48,0-2.97,0-4.76c13.18,0,25.99,0,38.81,0
			c0.93,3.5,1.3,51.34,0.47,64.3c-5.51,3.27-11.19,6.7-16.93,10.05c-25.26,14.74-50.54,29.44-75.8,44.18
			c-40.58,23.67-81.15,47.34-121.71,71.02c-40.96,23.91-81.92,47.82-122.87,71.73c-16.36,9.55-32.71,19.1-49.05,28.69
			c-1.39,0.81-2.6,1.92-3.9,2.89C612,993.6,611.69,993.6,611.39,993.6z"/>
		<linearGradient id="SVGID_11_" gradientUnits="userSpaceOnUse" x1="215.1427" y1="256.7492" x2="1001.6443" y2="256.7492">
			<stop  offset="0" style="stop-color:#99C224"/>
			<stop  offset="1" style="stop-color:#215C29"/>
		</linearGradient>
		<path class="st10" d="M608.66,86.4c0.65,0.59,1.21,1.32,1.95,1.75c21.43,12.27,42.88,24.51,64.32,36.77
			c18.02,10.3,36.02,20.64,54.04,30.94c25.12,14.36,50.26,28.68,75.38,43.04c27.76,15.86,55.49,31.75,83.26,47.59
			c31.06,17.72,62.14,35.41,93.2,53.12c5.66,3.23,11.22,6.65,16.97,9.69c2.52,1.33,3.34,2.98,3.34,5.72
			c-0.01,14.56,0.17,29.11,0.24,43.67c0.11,21.23,0.18,42.45,0.27,63.68c0.01,1.48,0,2.96,0,4.76c-13.99,0-27.54,0-41.53,0
			c-0.38-31.66-0.75-63.14-1.13-94.86C840.52,266.5,722.1,200.79,603.23,134.83C485.4,202.78,367.45,270.8,249.31,338.93
			c0.26,22.53,0.52,44.91,0.78,67.14c-3.72,1.09-28.24,1.35-33.91,0.52c-1.01-3.67-1.45-74.52-0.54-91.54
			c5.41-3.21,10.96-6.55,16.56-9.82c25.26-14.74,50.53-29.46,75.78-44.2c43.44-25.36,86.89-50.71,130.32-76.1
			c38.45-22.48,76.88-45,115.33-67.49c16.22-9.48,32.46-18.92,48.67-28.41c1.28-0.75,2.42-1.75,3.62-2.63
			C606.84,86.4,607.75,86.4,608.66,86.4z"/>
	</g>
</g>
</svg>
